# xmcd
#
# Track frame offsets:
#	150
#	29878
#	62199
#	102059
#	136741
#	173982
#	203427
#	237340
#	267988
#	300613
#
# Disc length: 4404 seconds
#
# Revision: 1
# Processed by: cddbd v1.5.2PL0 Copyright (c) Steve Scherf et al.
# Submitted via: audiograbber 1.83.01
#
DISCID=8811320a
DTITLE=KillerWatts - Blow your mind
DYEAR=1900
DGENRE=pstrance
TTITLE0=Infinite Loop
TTITLE1=Woke Up
TTITLE2=All Seeing Eye
TTITLE3=Psy Liberation
TTITLE4=Spirit Drop
TTITLE5=Battlestars
TTITLE6=Intergalactic
TTITLE7=Live Forever
TTITLE8=Another Planet
TTITLE9=Fly Thru the universe
EXTD=
EXTT0=
EXTT1=
EXTT2=
EXTT3=
EXTT4=
EXTT5=
EXTT6=
EXTT7=
EXTT8=
EXTT9=
PLAYORDER=
